<svg height="2270" width="720" xmlns="http://www.w3.org/2000/svg">
<rect height="2270" fill="#555" width="720"></rect>
<text fill="#7f7" font-family="Courier New" font-size="12" xml:space="preserve">
<tspan x="10" y="26">├── UNMET PEER DEPENDENCY grunt@&gt;=0.4.0</tspan>
<tspan x="10" y="42">└─┬ grunt-nodemon@0.4.2 </tspan>
<tspan x="10" y="58">  └─┬ nodemon@1.11.0 </tspan>
<tspan x="10" y="74">    ├─┬ chokidar@1.6.1 </tspan>
<tspan x="10" y="90">    │ ├─┬ anymatch@1.3.0 </tspan>
<tspan x="10" y="106">    │ │ ├── arrify@1.0.1 </tspan>
<tspan x="10" y="122">    │ │ └─┬ micromatch@2.3.11 </tspan>
<tspan x="10" y="138">    │ │   ├─┬ arr-diff@2.0.0 </tspan>
<tspan x="10" y="154">    │ │   │ └── arr-flatten@1.0.1 </tspan>
<tspan x="10" y="170">    │ │   ├── array-unique@0.2.1 </tspan>
<tspan x="10" y="186">    │ │   ├─┬ braces@1.8.5 </tspan>
<tspan x="10" y="202">    │ │   │ ├─┬ expand-range@1.8.2 </tspan>
<tspan x="10" y="218">    │ │   │ │ └─┬ fill-range@2.2.3 </tspan>
<tspan x="10" y="234">    │ │   │ │   ├── is-number@2.1.0 </tspan>
<tspan x="10" y="250">    │ │   │ │   ├── isobject@2.1.0 </tspan>
<tspan x="10" y="266">    │ │   │ │   ├── randomatic@1.1.6 </tspan>
<tspan x="10" y="282">    │ │   │ │   └── repeat-string@1.6.1 </tspan>
<tspan x="10" y="298">    │ │   │ ├── preserve@0.2.0 </tspan>
<tspan x="10" y="314">    │ │   │ └── repeat-element@1.1.2 </tspan>
<tspan x="10" y="330">    │ │   ├─┬ expand-brackets@0.1.5 </tspan>
<tspan x="10" y="346">    │ │   │ └── is-posix-bracket@0.1.1 </tspan>
<tspan x="10" y="362">    │ │   ├── extglob@0.3.2 </tspan>
<tspan x="10" y="378">    │ │   ├── filename-regex@2.0.0 </tspan>
<tspan x="10" y="394">    │ │   ├─┬ kind-of@3.1.0 </tspan>
<tspan x="10" y="410">    │ │   │ └── is-buffer@1.1.5 </tspan>
<tspan x="10" y="426">    │ │   ├─┬ normalize-path@2.1.1 </tspan>
<tspan x="10" y="442">    │ │   │ └── remove-trailing-separator@1.0.1 </tspan>
<tspan x="10" y="458">    │ │   ├─┬ object.omit@2.0.1 </tspan>
<tspan x="10" y="474">    │ │   │ ├─┬ for-own@0.1.5 </tspan>
<tspan x="10" y="490">    │ │   │ │ └── for-in@1.0.2 </tspan>
<tspan x="10" y="506">    │ │   │ └── is-extendable@0.1.1 </tspan>
<tspan x="10" y="522">    │ │   ├─┬ parse-glob@3.0.4 </tspan>
<tspan x="10" y="538">    │ │   │ ├── glob-base@0.3.0 </tspan>
<tspan x="10" y="554">    │ │   │ └── is-dotfile@1.0.2 </tspan>
<tspan x="10" y="570">    │ │   └─┬ regex-cache@0.4.3 </tspan>
<tspan x="10" y="586">    │ │     ├── is-equal-shallow@0.1.3 </tspan>
<tspan x="10" y="602">    │ │     └── is-primitive@2.0.0 </tspan>
<tspan x="10" y="618">    │ ├── async-each@1.0.1 </tspan>
<tspan x="10" y="634">    │ ├── glob-parent@2.0.0 </tspan>
<tspan x="10" y="650">    │ ├── inherits@2.0.3 </tspan>
<tspan x="10" y="666">    │ ├─┬ is-binary-path@1.0.1 </tspan>
<tspan x="10" y="682">    │ │ └── binary-extensions@1.8.0 </tspan>
<tspan x="10" y="698">    │ ├─┬ is-glob@2.0.1 </tspan>
<tspan x="10" y="714">    │ │ └── is-extglob@1.0.0 </tspan>
<tspan x="10" y="730">    │ ├── path-is-absolute@1.0.1 </tspan>
<tspan x="10" y="746">    │ └─┬ readdirp@2.1.0 </tspan>
<tspan x="10" y="762">    │   ├── graceful-fs@4.1.11 </tspan>
<tspan x="10" y="778">    │   ├─┬ readable-stream@2.2.6 </tspan>
<tspan x="10" y="794">    │   │ ├── buffer-shims@1.0.0 </tspan>
<tspan x="10" y="810">    │   │ ├── core-util-is@1.0.2 </tspan>
<tspan x="10" y="826">    │   │ ├── isarray@1.0.0 </tspan>
<tspan x="10" y="842">    │   │ ├── process-nextick-args@1.0.7 </tspan>
<tspan x="10" y="858">    │   │ ├── string_decoder@0.10.31 </tspan>
<tspan x="10" y="874">    │   │ └── util-deprecate@1.0.2 </tspan>
<tspan x="10" y="890">    │   └── set-immediate-shim@1.0.1 </tspan>
<tspan x="10" y="906">    ├─┬ debug@2.6.3 </tspan>
<tspan x="10" y="922">    │ └── ms@0.7.2 </tspan>
<tspan x="10" y="938">    ├── es6-promise@3.3.1 </tspan>
<tspan x="10" y="954">    ├── ignore-by-default@1.0.1 </tspan>
<tspan x="10" y="970">    ├─┬ lodash.defaults@3.1.2 </tspan>
<tspan x="10" y="986">    │ ├─┬ lodash.assign@3.2.0 </tspan>
<tspan x="10" y="1002">    │ │ ├─┬ lodash._baseassign@3.2.0 </tspan>
<tspan x="10" y="1018">    │ │ │ └── lodash._basecopy@3.0.1 </tspan>
<tspan x="10" y="1034">    │ │ ├─┬ lodash._createassigner@3.1.1 </tspan>
<tspan x="10" y="1050">    │ │ │ ├── lodash._bindcallback@3.0.1 </tspan>
<tspan x="10" y="1066">    │ │ │ └── lodash._isiterateecall@3.0.9 </tspan>
<tspan x="10" y="1082">    │ │ └─┬ lodash.keys@3.1.2 </tspan>
<tspan x="10" y="1098">    │ │   ├── lodash._getnative@3.9.1 </tspan>
<tspan x="10" y="1114">    │ │   ├── lodash.isarguments@3.1.0 </tspan>
<tspan x="10" y="1130">    │ │   └── lodash.isarray@3.0.4 </tspan>
<tspan x="10" y="1146">    │ └── lodash.restparam@3.6.1 </tspan>
<tspan x="10" y="1162">    ├─┬ minimatch@3.0.3 </tspan>
<tspan x="10" y="1178">    │ └─┬ brace-expansion@1.1.6 </tspan>
<tspan x="10" y="1194">    │   ├── balanced-match@0.4.2 </tspan>
<tspan x="10" y="1210">    │   └── concat-map@0.0.1 </tspan>
<tspan x="10" y="1226">    ├─┬ ps-tree@1.1.0 </tspan>
<tspan x="10" y="1242">    │ └─┬ event-stream@3.3.4 </tspan>
<tspan x="10" y="1258">    │   ├── duplexer@0.1.1 </tspan>
<tspan x="10" y="1274">    │   ├── from@0.1.7 </tspan>
<tspan x="10" y="1290">    │   ├── map-stream@0.1.0 </tspan>
<tspan x="10" y="1306">    │   ├── pause-stream@0.0.11 </tspan>
<tspan x="10" y="1322">    │   ├── split@0.3.3 </tspan>
<tspan x="10" y="1338">    │   ├── stream-combiner@0.0.4 </tspan>
<tspan x="10" y="1354">    │   └── through@2.3.8 </tspan>
<tspan x="10" y="1370">    ├─┬ touch@1.0.0 </tspan>
<tspan x="10" y="1386">    │ └─┬ nopt@1.0.10 </tspan>
<tspan x="10" y="1402">    │   └── abbrev@1.1.0 </tspan>
<tspan x="10" y="1418">    ├── undefsafe@0.0.3 </tspan>
<tspan x="10" y="1434">    └─┬ update-notifier@0.5.0 </tspan>
<tspan x="10" y="1450">      ├─┬ chalk@1.1.3 </tspan>
<tspan x="10" y="1466">      │ ├── ansi-styles@2.2.1 </tspan>
<tspan x="10" y="1482">      │ ├── escape-string-regexp@1.0.5 </tspan>
<tspan x="10" y="1498">      │ ├─┬ has-ansi@2.0.0 </tspan>
<tspan x="10" y="1514">      │ │ └── ansi-regex@2.1.1 </tspan>
<tspan x="10" y="1530">      │ ├── strip-ansi@3.0.1 </tspan>
<tspan x="10" y="1546">      │ └── supports-color@2.0.0 </tspan>
<tspan x="10" y="1562">      ├─┬ configstore@1.4.0 </tspan>
<tspan x="10" y="1578">      │ ├─┬ mkdirp@0.5.1 </tspan>
<tspan x="10" y="1594">      │ │ └── minimist@0.0.8 </tspan>
<tspan x="10" y="1610">      │ ├── object-assign@4.1.1 </tspan>
<tspan x="10" y="1626">      │ ├── os-tmpdir@1.0.2 </tspan>
<tspan x="10" y="1642">      │ ├─┬ osenv@0.1.4 </tspan>
<tspan x="10" y="1658">      │ │ └── os-homedir@1.0.2 </tspan>
<tspan x="10" y="1674">      │ ├── uuid@2.0.3 </tspan>
<tspan x="10" y="1690">      │ ├─┬ write-file-atomic@1.3.1 </tspan>
<tspan x="10" y="1706">      │ │ ├── imurmurhash@0.1.4 </tspan>
<tspan x="10" y="1722">      │ │ └── slide@1.1.6 </tspan>
<tspan x="10" y="1738">      │ └── xdg-basedir@2.0.0 </tspan>
<tspan x="10" y="1754">      ├── is-npm@1.0.0 </tspan>
<tspan x="10" y="1770">      ├─┬ latest-version@1.0.1 </tspan>
<tspan x="10" y="1786">      │ └─┬ package-json@1.2.0 </tspan>
<tspan x="10" y="1802">      │   ├─┬ got@3.3.1 </tspan>
<tspan x="10" y="1818">      │   │ ├─┬ duplexify@3.5.0 </tspan>
<tspan x="10" y="1834">      │   │ │ ├─┬ end-of-stream@1.0.0 </tspan>
<tspan x="10" y="1850">      │   │ │ │ └─┬ once@1.3.3 </tspan>
<tspan x="10" y="1866">      │   │ │ │   └── wrappy@1.0.2 </tspan>
<tspan x="10" y="1882">      │   │ │ └── stream-shift@1.0.0 </tspan>
<tspan x="10" y="1898">      │   │ ├── infinity-agent@2.0.3 </tspan>
<tspan x="10" y="1914">      │   │ ├── is-redirect@1.0.0 </tspan>
<tspan x="10" y="1930">      │   │ ├── is-stream@1.1.0 </tspan>
<tspan x="10" y="1946">      │   │ ├── lowercase-keys@1.0.0 </tspan>
<tspan x="10" y="1962">      │   │ ├── nested-error-stacks@1.0.2 </tspan>
<tspan x="10" y="1978">      │   │ ├── object-assign@3.0.0 </tspan>
<tspan x="10" y="1994">      │   │ ├── prepend-http@1.0.4 </tspan>
<tspan x="10" y="2010">      │   │ ├─┬ read-all-stream@3.1.0 </tspan>
<tspan x="10" y="2026">      │   │ │ └─┬ pinkie-promise@2.0.1 </tspan>
<tspan x="10" y="2042">      │   │ │   └── pinkie@2.0.4 </tspan>
<tspan x="10" y="2058">      │   │ └── timed-out@2.0.0 </tspan>
<tspan x="10" y="2074">      │   └─┬ registry-url@3.1.0 </tspan>
<tspan x="10" y="2090">      │     └─┬ rc@1.2.0 </tspan>
<tspan x="10" y="2106">      │       ├── deep-extend@0.4.1 </tspan>
<tspan x="10" y="2122">      │       ├── ini@1.3.4 </tspan>
<tspan x="10" y="2138">      │       ├── minimist@1.2.0 </tspan>
<tspan x="10" y="2154">      │       └── strip-json-comments@2.0.1 </tspan>
<tspan x="10" y="2170">      ├─┬ repeating@1.1.3 </tspan>
<tspan x="10" y="2186">      │ └─┬ is-finite@1.0.2 </tspan>
<tspan x="10" y="2202">      │   └── number-is-nan@1.0.1 </tspan>
<tspan x="10" y="2218">      ├─┬ semver-diff@2.1.0 </tspan>
<tspan x="10" y="2234">      │ └── semver@5.3.0 </tspan>
<tspan x="10" y="2250">      └── string-length@1.0.1</tspan>
</text>
</svg>
